<svg width="148" height="37" viewBox="0 0 148 37" fill="none" xmlns="http://www.w3.org/2000/svg">
<path d="M76.0902 7.11766C77.2247 7.11766 78.2907 7.15735 79.3519 7.1025C79.9701 7.07055 80.0792 7.28953 80.0749 7.85759C80.0486 11.3559 80.0617 14.8545 80.0617 18.3442C80.2253 18.4329 80.2926 18.3085 80.3674 18.2334C82.0152 16.579 83.6702 14.9326 85.3846 13.3461C85.6826 13.0703 85.9539 12.9227 86.3678 12.9273C88.2119 12.9481 90.0563 12.9337 91.9005 12.9401C92.1011 12.9408 92.3187 12.8715 92.6068 13.0826C90.3056 15.3338 88.2188 17.7513 85.8939 19.926C88.3234 23.0133 90.7241 26.0639 93.2369 29.257C92.6778 29.257 92.2676 29.257 91.8573 29.257C90.2022 29.257 88.5461 29.2236 86.8925 29.2744C86.2804 29.2932 85.9385 29.015 85.6056 28.5926C84.3232 26.9653 83.0321 25.3449 81.7486 23.7275C81.6784 23.7714 81.6576 23.7828 81.6385 23.7965C80.3982 24.6876 79.7701 25.8251 80.0432 27.4097C80.1409 27.9765 80.2489 28.7718 79.9512 29.1167C79.6008 29.5227 78.7984 29.2375 78.1933 29.2507C77.1534 29.2734 76.1113 29.2237 75.073 29.2702C74.5091 29.2955 74.3697 29.1211 74.3722 28.5664C74.3943 23.7194 74.385 18.8722 74.385 14.0251C74.385 11.968 74.4064 9.91061 74.3711 7.85415C74.3613 7.28 74.4867 7.02187 75.0987 7.11013C75.3998 7.15356 75.7123 7.11766 76.0902 7.11766Z" fill="#121416"/>
<path d="M107.415 20.4241C106.454 21.2897 105.528 22.1182 104.606 22.9512C104.106 23.4025 103.706 23.9583 103.142 24.4312C103.553 24.4312 103.963 24.4312 104.374 24.4312C106.338 24.4312 108.301 24.4432 110.264 24.422C110.709 24.4172 110.884 24.516 110.87 25.0016C110.836 26.2306 110.845 27.4614 110.867 28.6909C110.874 29.0997 110.794 29.2685 110.33 29.2669C105.245 29.25 100.159 29.2503 95.0743 29.2666C94.6192 29.2681 94.4941 29.1175 94.5325 28.6972C94.5624 28.3688 94.5934 28.0245 94.5294 27.7062C94.135 25.7424 95.1965 24.5648 96.6391 23.4974C97.5414 22.8298 98.2591 21.9309 99.1076 21.1796C100.501 19.9461 101.818 18.6247 103.137 17.3102C103.74 16.7087 104.112 15.9759 104.198 15.0914C104.342 13.6173 103.442 12.9904 102.267 12.822C100.65 12.5904 99.2536 13.1532 98.2541 14.474C97.9906 14.8223 97.8081 14.8035 97.5103 14.6361C96.3342 13.9748 95.1638 13.303 93.9778 12.6598C93.5375 12.421 93.4998 12.1668 93.7794 11.7771C95.2117 9.78083 97.1682 8.58682 99.5496 8.13103C101.724 7.7148 103.89 7.76485 106.017 8.51797C109.589 9.78262 110.86 12.6437 110.111 16.1196C109.825 17.4476 109.138 18.5731 108.173 19.5324C107.909 19.7946 107.69 20.1022 107.415 20.4241Z" fill="#121416"/>
<path d="M122.496 12.3686C122.496 17.8038 122.487 23.1681 122.51 28.5323C122.513 29.1206 122.364 29.2879 121.772 29.2715C120.214 29.2284 118.653 29.2439 117.094 29.2656C116.675 29.2714 116.525 29.1759 116.526 28.7214C116.54 22.0811 116.54 15.4408 116.527 8.80045C116.526 8.3651 116.644 8.23629 117.082 8.24312C118.689 8.26817 120.296 8.27589 121.902 8.24011C122.435 8.22825 122.518 8.43206 122.506 8.89501C122.477 10.0286 122.496 11.1634 122.496 12.3686Z" fill="#121416"/>
<path fill-rule="evenodd" clip-rule="evenodd" d="M129.829 8.24793C129.141 8.25067 128.447 8.25343 127.748 8.25343C127.493 8.25343 127.246 8.25507 127.002 8.25667C126.43 8.26045 125.882 8.26407 125.335 8.24596C124.93 8.23253 124.756 8.312 124.757 8.78006C124.772 15.426 124.774 22.072 124.755 28.7179C124.753 29.2532 124.996 29.2642 125.393 29.2626C128.018 29.2524 130.644 29.2478 133.269 29.2609C134.935 29.2691 136.587 29.2137 138.226 28.8424C141.351 28.1342 143.809 26.5093 145.306 23.6415C146.437 21.4737 146.568 19.1229 146.194 16.7408C145.721 13.7172 144.124 11.4718 141.473 9.93971C139.281 8.67295 136.886 8.30233 134.417 8.26113C132.896 8.23575 131.374 8.24179 129.829 8.24793ZM135.792 24.2859C137.074 24.0428 138.222 23.5426 139.065 22.4135C140.138 21.2061 140.271 19.7935 140.244 18.3135C140.198 15.7666 138.521 13.9622 136.335 13.3797C135.033 13.0326 133.696 13.0507 132.36 13.0687C131.979 13.0739 131.599 13.079 131.219 13.0757C130.868 13.0726 130.868 13.2771 130.869 13.5146L130.869 13.5398C130.869 14.0659 130.87 14.592 130.87 15.118C130.872 18.0665 130.873 21.0149 130.862 23.9633C130.861 24.3448 130.991 24.4515 131.353 24.4372C131.863 24.4171 132.374 24.4259 132.885 24.4348C133.857 24.4516 134.828 24.4685 135.792 24.2859Z" fill="#121416"/>
<path fill-rule="evenodd" clip-rule="evenodd" d="M7.41715 7.91112C7.43167 7.25642 7.24479 7.00355 6.5338 7.11767C6.1121 7.11768 5.69573 7.11883 5.28323 7.11997C4.21716 7.12291 3.1769 7.12578 2.13696 7.10866C1.71196 7.10166 1.57127 7.20809 1.57217 7.65738C1.58631 14.6817 1.58676 21.7061 1.57154 28.7304C1.57052 29.1985 1.74522 29.2713 2.15006 29.2647C3.07023 29.2496 3.9907 29.2522 4.91116 29.2549C5.26791 29.2559 5.62467 29.257 5.9814 29.257C7.09176 29.257 7.09177 29.257 7.12722 28.1674L7.12728 28.1656C7.12795 28.145 7.14679 28.1249 7.17087 28.0992C7.18392 28.0853 7.19852 28.0697 7.21259 28.0515C7.50226 28.1599 7.74952 28.337 7.99936 28.5159C8.26979 28.7096 8.54325 28.9055 8.87678 29.0187C10.5172 29.5758 12.1549 29.694 13.8177 29.2501C16.4519 28.5469 18.2864 26.9381 19.1798 24.332C19.6768 22.8819 19.8233 21.413 19.6328 19.8635C19.3511 17.5714 18.4839 15.6353 16.5992 14.2783C14.1104 12.4864 11.3992 12.2739 8.57621 13.4174C8.31364 13.5237 8.07085 13.6789 7.80711 13.8475C7.67822 13.9298 7.54432 14.0154 7.40067 14.1001C7.40067 13.5 7.3984 12.9074 7.39614 12.3203C7.39041 10.8267 7.38481 9.36851 7.41715 7.91112ZM12.8886 23.8778C13.9581 22.6968 14.3101 20.0381 12.9765 18.441C11.4437 16.7505 8.77887 17.081 7.75568 18.9398C6.99397 20.3236 7.00787 21.8448 7.74498 23.2425C8.74416 25.1371 11.5105 25.3995 12.8886 23.8778Z" fill="#121416"/>
<path fill-rule="evenodd" clip-rule="evenodd" d="M56.2262 20.8199C56.1288 18.0522 55.1627 15.7384 52.8093 14.0699C49.6707 12.2022 46.6206 12.2352 43.5892 14.2129C43.5892 14.1647 43.5871 14.1136 43.5849 14.0606C43.5799 13.9384 43.5745 13.8064 43.5935 13.678C43.6773 13.1139 43.5074 12.896 42.8825 12.9195C41.4893 12.972 40.0925 12.9527 38.6979 12.9264C38.2366 12.9177 38.0408 12.9962 38.0422 13.5288C38.0606 20.4809 38.0583 27.433 38.0453 34.385C38.0445 34.8198 38.161 34.951 38.6006 34.9433C40.0899 34.9171 41.5808 34.902 43.0692 34.948C43.7025 34.9676 43.9061 34.8119 43.8904 34.1455C43.8562 32.6997 43.862 31.253 43.8682 29.7463C43.8706 29.1466 43.8731 28.5374 43.8731 27.9149C44.2363 28.2889 44.5132 28.5245 44.8468 28.6897C46.3303 29.4244 47.8584 29.669 49.5197 29.4196C51.5692 29.1119 53.2468 28.2054 54.4943 26.5909C55.7948 24.9076 56.3011 22.9485 56.2262 20.8199ZM43.8438 20.2871C43.3317 22.7961 45.0791 25.1732 47.5055 24.8563C48.2869 24.7001 48.9713 24.4189 49.4492 23.868C50.5808 22.5633 50.735 20.3925 49.8277 18.8999C49.1686 17.8155 47.7068 17.1137 46.4815 17.4339C44.9414 17.8365 44.1583 18.7461 43.8438 20.2871Z" fill="#121416"/>
<path fill-rule="evenodd" clip-rule="evenodd" d="M22.4622 28.4092C23.8768 29.3687 25.4847 29.5543 27.1989 29.5039C28.8015 29.3745 30.1408 28.8309 31.2419 27.4355C31.2419 27.6156 31.2453 27.7695 31.2482 27.9061C31.2539 28.1646 31.2582 28.3608 31.2357 28.5539C31.1739 29.0865 31.328 29.2943 31.9166 29.2733C33.263 29.2254 34.6135 29.2254 35.9599 29.2734C36.549 29.2944 36.6606 29.0862 36.6443 28.5539C36.6055 27.2884 36.6166 26.0225 36.6276 24.7565C36.6443 22.838 36.661 20.9192 36.5045 19.0009C36.2803 16.2533 34.9435 14.3061 32.4294 13.3666C30.1395 12.5108 27.7613 12.6644 25.4172 12.9818C24.1446 13.154 22.8848 13.5627 21.7374 14.2124C21.326 14.4454 21.0699 14.6218 21.3509 15.2174C21.5549 15.6499 21.7688 16.0774 21.9826 16.5047C22.269 17.0773 22.5554 17.6496 22.8176 18.2331C22.9889 18.6143 23.1653 18.5827 23.4371 18.395C24.864 17.4096 26.4712 17.0811 28.1631 17.209C29.3877 17.3016 30.5298 17.9806 30.7277 19.2522C30.7806 19.5917 30.7118 19.608 30.4574 19.6076C30.1877 19.6071 29.918 19.6084 29.6484 19.6098C29.1375 19.6123 28.6266 19.6148 28.1159 19.6051C26.5664 19.5758 25.031 19.6401 23.551 20.1694C21.8633 20.7729 20.7013 21.8717 20.4721 23.7032C20.2315 25.6254 20.7882 27.2738 22.4622 28.4092ZM27.1965 25.669C28.1282 25.9092 29.0321 25.8631 29.8656 25.1881C30.6629 24.6378 30.8574 23.8849 30.8173 23.0236C30.8047 22.7527 30.6491 22.7295 30.4431 22.73C30.1361 22.7308 29.8289 22.7276 29.5217 22.7245C28.8594 22.7176 28.197 22.7108 27.5366 22.7434C26.7613 22.7818 26.0972 23.4318 26.0044 24.123C25.9298 24.6783 26.5255 25.4961 27.1965 25.669Z" fill="#121416"/>
<path fill-rule="evenodd" clip-rule="evenodd" d="M59.9918 18.218C61.4568 17.315 63.0776 16.9465 64.8691 17.3221C65.8789 17.523 66.5778 17.969 66.9063 18.9637C67.0897 19.5192 66.9603 19.6047 66.4464 19.6141C65.9349 19.6234 65.4231 19.6157 64.9112 19.6079C63.7756 19.5907 62.6399 19.5735 61.507 19.7429C59.4577 20.0492 57.0812 21.0621 56.734 23.6599C56.4344 25.9015 57.3738 27.95 59.4189 28.8151C61.6243 29.7481 63.8527 29.9062 66.0668 28.7113C66.5457 28.4528 66.8894 28.0856 67.315 27.6309C67.3533 27.5899 67.3923 27.5483 67.4321 27.5059C67.4321 27.6682 67.4345 27.8147 67.4367 27.9504C67.4411 28.2268 67.4449 28.4587 67.4264 28.6888C67.3938 29.0955 67.4902 29.2774 67.9588 29.2676C69.3055 29.2394 70.653 29.2487 72.0002 29.2581C72.1191 29.259 72.2379 29.2598 72.3567 29.2606C72.6633 29.2627 72.8401 29.2157 72.8298 28.843C72.7943 27.5533 72.815 26.2622 72.8358 24.9713C72.8708 22.793 72.9058 20.615 72.6704 18.4445C72.396 15.9145 70.963 14.2466 68.58 13.3442C67.1454 12.801 65.6689 12.7953 64.1799 12.7896C64.1011 12.7893 64.0221 12.789 63.9432 12.7886C61.7251 12.7778 59.6676 13.3541 57.7109 14.3679C57.3515 14.5541 57.3071 14.7253 57.4922 15.0739C57.5355 15.1556 57.5789 15.2372 57.6224 15.3189C58.0724 16.1648 58.5235 17.0129 58.8966 17.8928C59.1695 18.5364 59.3578 18.6088 59.9918 18.218ZM63.4526 25.6904C64.1329 25.8363 64.8197 25.8532 65.5371 25.564C66.5461 25.0331 67.1342 24.304 67.0151 23.1372C66.9855 22.8465 66.9224 22.7181 66.6089 22.7234C66.2406 22.7297 65.8721 22.7266 65.5036 22.7235C64.9759 22.7191 64.4484 22.7147 63.9219 22.7377C63.0628 22.7753 62.3895 23.3568 62.3239 24.0315C62.256 24.729 62.7895 25.5482 63.4526 25.6904Z" fill="#121416"/>
</svg>
