<svg width="193" height="28" viewBox="0 0 193 28" fill="none" xmlns="http://www.w3.org/2000/svg">
<g clip-path="url(#clip0_956_80)">
<path d="M13.9556 24.1848H14.3442V7.10474H13.9556V24.1848Z" fill="#121416"/>
<path d="M28.6184 7.95446C27.3158 9.03771 27.1546 9.21915 26.1838 10.6653C25.2075 9.21915 25.0464 9.03771 23.7451 7.95446C25.0464 6.87257 25.2075 6.69248 26.1838 5.24634C27.1573 6.69248 27.3158 6.87257 28.6184 7.95446Z" fill="#121416"/>
<path d="M28.7689 24.5945C28.5238 24.432 28.364 24.2275 28.2557 24.0258C28.169 23.8971 28.123 23.7198 28.0905 23.5532C28.0336 23.2716 28.0621 23.0563 28.0621 23.0563V10.9727L23.8225 14.5298C24.2369 14.9658 24.2964 15.5006 24.3005 15.7078C24.3046 15.762 24.3005 15.7972 24.3005 15.7972V23.4137C24.3005 25.7468 25.9497 26.96 25.9497 26.96L28.7689 24.5945Z" fill="#121416"/>
<path d="M60.2203 7.95446C58.9231 9.03771 58.7593 9.21915 57.783 10.6653C56.8121 9.21915 56.6483 9.03771 55.3457 7.95446C56.6483 6.87257 56.8121 6.69248 57.783 5.24634C58.7593 6.69248 58.9231 6.87257 60.2203 7.95446Z" fill="#121416"/>
<path d="M60.3717 24.5945C60.1306 24.432 59.9668 24.2275 59.8598 24.0258C59.7718 23.8971 59.7217 23.7198 59.696 23.5532C59.6432 23.2716 59.6621 23.0563 59.6621 23.0563V10.9727L55.4253 14.5298C55.8383 14.9658 55.8992 15.5006 55.9073 15.7078C55.9087 15.762 55.9073 15.7972 55.9073 15.7972V23.4137C55.9073 25.7468 57.5552 26.96 57.5552 26.96L60.3717 24.5945Z" fill="#121416"/>
<path d="M34.2761 13.8537C34.2761 13.8537 34.5645 15.0913 36.2002 15.0913C36.2002 15.0913 37.1535 15.1278 38.1907 14.0811L40.043 12.2234C39.1818 12.6716 38.3437 12.6932 37.7831 12.6282C37.622 12.6161 37.3891 12.5822 37.1169 12.4861C37.102 12.482 37.0898 12.4779 37.0898 12.4779H37.0925C36.6321 12.3114 36.0824 11.9702 35.6505 11.2552L31.9877 14.3357C31.9877 14.3357 31.0873 15.1522 31.0873 16.5333C31.0873 16.5333 30.9437 18.9138 34.0012 20.3883C34.0012 20.3883 35.6965 21.1994 36.7215 21.9103C36.7215 21.9103 37.3918 22.3531 37.3918 23.1019C37.3918 23.1019 37.4405 24.2433 36.1393 24.2433C36.1393 24.2433 34.0242 24.3639 33.966 21.2224L30.5605 24.0443C30.5605 24.0443 31.3513 26.9366 34.0716 26.9366C34.0716 26.9366 36.8447 27.0138 38.9692 24.1255C38.9692 24.1255 40.0281 22.7458 40.0281 21.3795C40.0281 21.3795 40.2096 19.0316 37.1006 17.6667C37.1006 17.6667 35.7452 17.1169 34.513 16.2341C34.513 16.2341 33.7358 15.771 33.7358 14.9017C33.7358 14.9017 33.6546 14.3885 34.2761 13.8537Z" fill="#121416"/>
<path d="M65.9464 13.8527C65.9464 13.8527 66.2349 15.0903 67.8706 15.0903C67.8706 15.0903 68.8252 15.1269 69.8664 14.0802L71.7147 12.2224C70.8522 12.6706 70.0154 12.6923 69.4562 12.6273C69.2923 12.6151 69.0608 12.5812 68.7886 12.4851C68.7737 12.481 68.7629 12.477 68.7629 12.477C68.3039 12.3104 67.7514 11.9692 67.3235 11.2542L63.6581 14.3347C63.6581 14.3347 62.7576 15.1512 62.7576 16.5324C62.7576 16.5324 62.6141 18.9128 65.6756 20.3874C65.6756 20.3874 67.3682 21.1984 68.3959 21.9093C68.3959 21.9093 69.0648 22.3521 69.0648 23.1009C69.0648 23.1009 69.1109 24.2424 67.8096 24.2424C67.8096 24.2424 65.6959 24.3629 65.6364 21.2215L62.2363 24.0433C62.2363 24.0433 63.0217 26.9356 65.7433 26.9356C65.7433 26.9356 68.5137 27.0128 70.6396 24.1246C70.6396 24.1246 71.7012 22.7448 71.7012 21.3785C71.7012 21.3785 71.8799 19.0306 68.7683 17.6657C68.7683 17.6657 67.4156 17.116 66.1875 16.2331C66.1875 16.2331 65.4116 15.77 65.4116 14.9007C65.4116 14.9007 65.3263 14.3875 65.9464 13.8527Z" fill="#121416"/>
<path d="M5.1154 12.1603C5.1154 12.1603 4.99624 12.1427 4.81209 12.1427C4.18787 12.1427 2.15137 12.3729 2.15137 15.3342C2.15408 15.3884 2.20824 16.6896 2.65643 17.8649L2.82975 18.3118L2.90829 17.8406C2.91912 17.7769 3.18993 16.2698 4.63336 16.2698C4.75657 16.2698 4.88927 16.2807 5.02468 16.3037L5.17498 16.3294L5.23049 12.1765L5.1154 12.1603Z" fill="#121416"/>
<path d="M14.9942 6.90635L14.175 7.72285L13.3599 6.90635L14.175 6.08716L14.9942 6.90635Z" fill="#121416"/>
<path d="M51.3759 12.4976L49.8715 10.9865L46.2169 14.0209C46.2169 11.7136 44.9143 10.9743 44.9143 10.9743L41.8081 13.5213C42.1493 13.9086 42.2495 14.3215 42.2793 14.5707C42.301 14.7034 42.2888 14.8117 42.2888 14.8117V23.2069C42.2888 25.8893 43.911 26.9427 43.911 26.9427L46.8493 24.5474C46.5202 24.3226 46.3604 24.0694 46.2819 23.8677C46.2291 23.7566 46.2101 23.6334 46.2061 23.5603C46.2034 23.5183 46.2034 23.4912 46.2034 23.4912V15.0175C46.9508 14.4475 47.5886 14.4786 47.5886 14.4786C48.9426 14.4786 48.9101 15.5741 48.9101 15.5741V23.1107V27.3557C48.9101 27.3557 52.6866 26.0057 52.6866 23.1107V15.639C52.6866 13.7704 51.3759 12.4976 51.3759 12.4976Z" fill="#121416"/>
<path d="M8.16614 8.71972C8.16614 8.71972 8.16614 8.64389 8.17291 8.51796C8.17291 8.50578 8.17562 8.49224 8.17562 8.48141C8.19187 8.07113 8.27447 7.22078 8.57372 6.56541C6.93124 7.62429 5.63135 8.9648 5.61781 8.9797C4.67538 9.95462 4.7133 11.023 4.71871 11.0622V21.024C4.71871 22.5135 4.15272 23.1147 4.14053 23.1242L3.71265 23.5548L4.2827 23.3395C8.30561 21.8108 8.16885 18.4446 8.16614 18.4188V8.71972Z" fill="#121416"/>
<path d="M15.5191 12.2894H15.4257C19.7627 9.44313 19.7208 5.53667 19.7208 5.49876C19.7208 1.10078 16.3058 1.05068 16.2706 1.05068C14.7378 1.05068 13.8238 1.98227 13.794 2.01341L10.1625 5.21305C8.9763 6.56982 9.14285 8.05251 9.14827 8.09855V18.2702C9.14827 20.3677 8.34937 21.1557 8.34396 21.1611L7.91066 21.5701L8.47395 21.3805C12.7528 19.9479 12.6241 16.3068 12.6241 16.2771V5.61521C12.6241 4.58206 12.9031 3.82379 13.4312 3.41892C13.8347 3.10884 14.2422 3.10614 14.2612 3.10614C14.6647 3.10614 15.0168 3.25508 15.3079 3.54891C16.3261 4.57123 16.3234 7.00989 16.3234 7.03561C16.3234 11.6015 14.1434 12.334 14.1231 12.3422L14.0296 12.3692V12.9095L14.1529 12.919C17.9171 13.2047 17.9171 17.3928 17.9171 17.5715C17.9171 22.1144 15.2984 23.4197 14.8732 23.6025C13.2646 22.5342 11.6587 21.9952 10.092 21.9952C6.33318 21.9952 3.75641 25.1312 2.82617 26.4731C3.91754 25.9599 4.93444 25.7121 5.66699 25.5903C5.92832 25.5388 6.19101 25.5104 6.4564 25.4968C6.66628 25.4792 6.78679 25.4779 6.78679 25.4779C7.67505 25.4779 8.59175 25.6851 9.52063 26.0872L9.55178 26.1021C10.0799 26.354 10.7285 26.4799 11.484 26.4799C13.6952 26.4799 16.0878 25.421 16.1826 25.3763C20.1717 23.7555 21.3524 20.304 21.3632 20.2648C21.3917 20.174 21.4079 20.1185 21.4079 20.1131C21.7749 18.8173 21.7789 17.5729 21.7789 17.5228C21.7789 12.6671 16.991 12.2894 15.5191 12.2894Z" fill="#121416"/>
<path d="M10.1069 2.4522C9.98775 2.47658 9.86183 2.49012 9.73319 2.49689C9.67497 2.5023 9.6357 2.5023 9.6357 2.5023C9.6357 2.5023 9.61268 2.50501 9.58831 2.50501C9.44884 2.50501 8.92482 2.45626 8.04333 1.82934C7.9851 1.78465 6.57553 0.708175 5.45572 0.708175C5.45572 0.708175 5.42999 0.705467 5.3826 0.705467C5.00347 0.705467 3.69409 0.804313 2.55804 2.07442C2.51877 2.1191 1.66571 3.17933 1.16742 4.47652L1.13086 4.56589C2.28722 3.71283 3.20663 3.78324 3.20663 3.78324C3.20663 3.78324 3.99063 3.79001 4.79223 4.42506C4.83962 4.46569 6.00818 5.42571 7.09684 5.42571C7.09684 5.42571 7.151 5.43384 7.24985 5.43384C7.84022 5.43384 9.90922 5.16573 11.8699 1.77382C11.2254 2.20576 10.5456 2.38315 10.1069 2.4522Z" fill="#121416"/>
<path d="M178.588 7.95425C177.289 9.03749 177.127 9.21894 176.152 10.6651C175.175 9.21894 175.012 9.03749 173.714 7.95425C175.012 6.87235 175.175 6.69226 176.152 5.24613C177.127 6.69226 177.289 6.87235 178.588 7.95425Z" fill="#121416"/>
<path d="M178.738 24.5944C178.493 24.4319 178.331 24.2275 178.224 24.0257C178.138 23.8971 178.087 23.7197 178.061 23.5532C178.006 23.2715 178.03 23.0562 178.03 23.0562V10.9726L173.791 14.5297C174.202 14.9657 174.264 15.5006 174.273 15.7077C174.275 15.7619 174.273 15.7971 174.273 15.7971V23.4137C174.273 25.7467 175.919 26.96 175.919 26.96L178.738 24.5944Z" fill="#121416"/>
<path d="M166.15 13.8555C166.15 13.8555 166.438 15.0931 168.072 15.0931C168.072 15.0931 169.028 15.1296 170.066 14.0829L171.919 12.2252C171.058 12.6734 170.219 12.695 169.657 12.63C169.498 12.6179 169.262 12.584 168.989 12.4879C168.978 12.4838 168.966 12.4797 168.966 12.4797C168.508 12.3132 167.955 11.972 167.525 11.257L163.863 14.3375C163.863 14.3375 162.963 15.154 162.963 16.5351C162.963 16.5351 162.819 18.9156 165.877 20.3901C165.877 20.3901 167.572 21.2012 168.597 21.9121C168.597 21.9121 169.269 22.3549 169.269 23.1037C169.269 23.1037 169.318 24.2451 168.016 24.2451C168.016 24.2451 165.9 24.3657 165.84 21.2242L162.436 24.0461C162.436 24.0461 163.223 26.9384 165.947 26.9384C165.947 26.9384 168.718 27.0156 170.845 24.1273C170.845 24.1273 171.902 22.7476 171.902 21.3813C171.902 21.3813 172.085 19.0334 168.975 17.6685C168.975 17.6685 167.621 17.1187 166.39 16.2359C166.39 16.2359 165.613 15.7728 165.613 14.9035C165.613 14.9035 165.53 14.3903 166.15 13.8555Z" fill="#121416"/>
<path d="M122.552 24.1045C122.474 23.9434 122.481 23.77 122.481 23.77V7.58364C122.481 5.34673 121.349 4.64127 121.349 4.64127L118.135 7.21127C118.813 7.75019 118.748 8.33649 118.748 8.33649V12.7954C118.144 11.9721 116.694 11.0676 116.694 11.0676L111.301 15.5563C111.738 15.9449 111.685 16.2956 111.685 16.2956V21.8432C111.685 25.4125 114.995 27.1037 114.995 27.1037L118.733 24.0327C118.733 25.858 120.354 27.1213 120.354 27.1213L123.084 24.8858C122.772 24.6055 122.623 24.3184 122.552 24.1045ZM117.043 23.7457C115.413 23.7457 115.452 22.2373 115.452 22.2373V14.4623L115.658 14.2564C117.043 15.1772 117.982 16.4947 117.982 16.4947C118.714 17.4628 118.733 18.6368 118.733 18.6368V22.9319C117.848 23.7998 117.043 23.7457 117.043 23.7457Z" fill="#121416"/>
<path d="M133.827 12.7342L130.916 10.9171L125.31 15.5669C125.535 15.77 125.591 16.0517 125.605 16.1965V16.1979C125.613 16.2507 125.613 16.2886 125.613 16.2886V21.6534C125.613 21.6534 125.391 23.9864 127.604 25.2227C127.604 25.2227 129.181 26.1597 130.627 27.1116L135.087 23.3812C135.087 23.3812 135.912 22.6838 135.912 21.082V16.2101C135.912 16.2101 136.026 14.0517 133.827 12.7342ZM131.832 24.3886C131.832 24.3886 130.796 24.0216 129.922 23.0562C129.922 23.0562 129.335 22.5322 129.335 21.235V14.7721C129.335 14.7721 129.291 14.1912 129.734 13.7619L131.297 14.8682C131.297 14.8682 132.121 15.4762 132.121 16.4755V23.1984C132.121 23.1984 132.179 23.9621 131.832 24.3886Z" fill="#121416"/>
<path d="M191.776 23.8644C191.714 23.7696 191.661 23.6261 191.631 23.4148C191.606 23.2483 191.615 23.1359 191.615 23.1359V14.9601C191.615 14.9601 191.675 12.1978 189.145 10.795C189.145 10.795 185.432 10.8573 182.012 14.1111V15.4746C182.012 15.4746 183.602 13.4923 185.783 12.7151C185.783 12.7151 187.917 13.0956 187.917 15.8077V16.5132L184.128 17.7197C184.128 17.7197 180.665 18.6729 180.665 21.9335C180.665 21.9335 180.642 25.2902 184.321 26.7905L187.917 23.8739C188 24.7621 188.342 26.0038 189.476 26.8379L192.293 24.4669C192.033 24.2828 191.875 24.0661 191.776 23.8644ZM187.917 22.7852C187.538 23.1467 186.778 23.7655 185.969 23.7655C185.969 23.7655 184.699 23.9104 184.699 22.2679V19.901C184.699 19.901 184.684 18.7596 185.974 18.1733L187.917 17.2904V22.7852Z" fill="#121416"/>
<path d="M88.027 11.6563L87.9038 11.6495C87.9038 11.6495 87.8686 11.6468 87.7955 11.6468C87.2959 11.6468 84.8071 11.7971 84.8125 14.772C84.8125 14.8302 84.8843 16.1409 85.3555 17.1484L85.5356 17.5343L85.5992 17.1118C85.61 17.0536 85.8484 15.6643 87.3094 15.6643C87.4868 15.6643 87.6736 15.6846 87.8713 15.7266L88.027 15.7564V11.6563Z" fill="#121416"/>
<path d="M107.349 12.4986L105.846 10.9875L102.191 14.0219C102.191 11.7146 100.89 10.9753 100.89 10.9753L97.7822 13.5223C98.1248 13.9095 98.2277 14.3225 98.2561 14.5717C98.271 14.7044 98.2643 14.8127 98.2643 14.8127V23.2079C98.2643 25.8902 99.8878 26.9437 99.8878 26.9437L102.825 24.5484C102.497 24.3236 102.337 24.0704 102.256 23.8686C102.206 23.7576 102.19 23.6344 102.182 23.5613C102.18 23.5193 102.18 23.4922 102.18 23.4922V15.0185C102.93 14.4485 103.567 14.4796 103.567 14.4796C104.918 14.4796 104.886 15.575 104.886 15.575V23.1117V27.3567C104.886 27.3567 108.663 26.0067 108.663 23.1117V15.64C108.663 13.7714 107.349 12.4986 107.349 12.4986Z" fill="#121416"/>
<path d="M147.832 12.4984L146.329 10.9872L142.673 14.0217C142.673 11.7144 141.373 10.975 141.373 10.975L138.264 13.522C138.606 13.9093 138.709 14.3223 138.738 14.5714C138.756 14.7041 138.748 14.8124 138.748 14.8124V23.2076C138.748 25.89 140.371 26.9435 140.371 26.9435L143.307 24.5481C142.981 24.3234 142.818 24.0701 142.74 23.8684C142.687 23.7574 142.668 23.6341 142.665 23.561C142.661 23.519 142.661 23.492 142.661 23.492V15.0183C143.407 14.4482 144.045 14.4794 144.045 14.4794C145.399 14.4794 145.369 15.5748 145.369 15.5748V23.1115V27.3564C145.369 27.3564 149.144 26.0064 149.144 23.1115V15.6398C149.144 13.7712 147.832 12.4984 147.832 12.4984Z" fill="#121416"/>
<path d="M157.829 23.8107C156.198 23.8107 155.84 22.6909 155.768 22.0247C157.952 20.6219 159.633 18.8684 159.633 18.8684C160.636 17.8312 160.633 16.5259 160.633 16.5259C160.633 15.3438 159.629 14.2416 159.629 14.2416C158.164 12.5585 156.42 11.107 156.42 11.107L151.767 14.7859C151.928 15.0012 151.98 15.2301 151.995 15.3655C152.009 15.4345 152.004 15.4873 152.004 15.4873V21.6673C152.004 23.6455 153.024 24.764 153.024 24.764C154.215 26.1736 155.753 27.1133 155.753 27.1133L160.57 23.1987C159.603 23.6374 158.564 23.762 158.092 23.7958C157.928 23.8189 157.829 23.8107 157.829 23.8107ZM155.766 15.3208C157.686 16.7236 157.602 18.3092 157.602 18.3092C157.602 19.7255 156.318 20.7126 155.766 21.0728V15.3208Z" fill="#121416"/>
<path d="M92.598 2.45211C92.4815 2.47648 92.3569 2.49002 92.227 2.49679C92.1647 2.50221 92.1254 2.50221 92.1254 2.50221C92.1254 2.50221 92.1092 2.50492 92.0807 2.50492C91.9399 2.50492 91.4132 2.45617 90.5344 1.82924C90.4748 1.78456 89.0666 0.708084 87.9468 0.708084C87.9468 0.708084 87.921 0.705375 87.8764 0.705375C87.4972 0.705375 86.1865 0.804222 85.045 2.07433C85.0139 2.11901 84.1581 3.17924 83.6585 4.47643L83.626 4.5658C84.7783 3.71274 85.6977 3.78315 85.6977 3.78315C85.7031 3.78315 86.483 3.78992 87.2833 4.42497C87.332 4.46559 88.5006 5.42562 89.5879 5.42562C89.5879 5.42562 89.6421 5.43375 89.7409 5.43375C90.334 5.43375 92.4003 5.16564 94.3596 1.77373C93.7164 2.20567 93.0367 2.38305 92.598 2.45211Z" fill="#121416"/>
<path d="M90.9162 8.75413C90.9162 8.44134 90.9378 8.1597 90.9717 7.91055C91.0231 7.40413 91.1179 6.75825 91.2939 6.21256L91.2845 6.21527C89.3888 7.31477 88.1336 9.02494 88.1187 9.04931C87.4728 10.0351 87.4985 11.2618 87.4985 11.3133V18.7335C87.4985 20.024 86.9731 20.6685 86.9664 20.6739L86.6509 21.049L87.1099 20.8811C90.9717 19.4688 90.9175 16.3328 90.9162 16.3017V8.75413Z" fill="#121416"/>
<path d="M95.3981 20.7412V6.79436C95.3981 6.79436 95.2695 3.63941 97.1868 1.40656C95.0691 2.92175 93.0231 4.87837 93.0041 4.89868C91.7733 6.09837 91.9114 7.5594 91.9168 7.6068V22.2496C91.9168 23.7445 90.8823 24.1845 90.8336 24.2048C90.5912 24.3159 90.3461 24.37 90.0983 24.37C89.2277 24.37 88.5994 23.6876 88.5953 23.6808L87.3875 22.3159C86.1621 20.9199 84.739 20.8752 84.5751 20.8752C83.7031 20.8752 82.9679 21.1812 82.3843 21.7784C81.0397 23.1676 80.9124 25.7092 80.907 26.4715C81.6571 25.5034 82.4479 25.1798 82.9205 25.0728C83.0802 25.0376 83.2102 25.0227 83.2969 25.0213C83.3335 25.0213 83.3524 25.0213 83.3524 25.0213C83.3781 25.0213 83.3917 25.0213 83.4039 25.0227C84.2867 25.0227 84.8568 25.5101 84.8744 25.5223L85.4688 25.9489C87.7355 27.6008 90.6508 26.4268 91.3386 26.1127C92.3379 25.6117 93.1003 25.0484 93.6121 24.6029C93.8152 24.4418 94.0075 24.259 94.1916 24.0464L94.5911 23.6131C95.5863 22.2062 95.4022 20.8048 95.3981 20.7412Z" fill="#121416"/>
</g>
<defs>
<clipPath id="clip0_956_80">
<rect width="192.247" height="27.738" fill="white" transform="translate(0.587402 0.174072)"/>
</clipPath>
</defs>
</svg>
