<svg width="171" height="30" viewBox="0 0 171 30" fill="none" xmlns="http://www.w3.org/2000/svg">
<g clip-path="url(#clip0_956_67)">
<path d="M36.8671 19.6958C35.3856 21.1686 33.1633 21.9676 31.1937 21.9676C25.6155 21.9676 23.4573 18.0928 23.4262 14.3778C23.3933 10.6316 25.7471 6.59535 31.1937 6.59535C33.1633 6.59535 35.1606 7.26922 36.6421 8.71074L39.4788 5.98922C37.1596 3.71404 34.2589 2.56082 31.1937 2.56082C23.0385 2.56082 19.2032 8.51623 19.2343 14.3796C19.2672 20.2099 22.8135 25.943 31.1937 25.943C34.451 25.943 37.4486 24.8853 39.7695 22.6119L36.8671 19.6958Z" fill="#121416"/>
<path d="M50.7822 3.00711L40.6262 25.4271H45.2508L47.1909 21.1998H59.0257L60.9347 25.4271H65.5921L55.4379 3.00711H50.7822ZM48.9043 17.2591L53.1083 7.71551L57.3157 17.2591H48.9043Z" fill="#121416"/>
<path d="M78.6451 2.9758C75.0556 2.9758 71.4643 3.00706 67.8765 3.00706V25.4288H72.1825V18.8308H78.6434C89.8413 18.8291 89.8084 2.9758 78.6451 2.9758ZM78.6451 14.9543H72.1843V7.01033H78.6451C84.1299 7.01033 84.1645 14.9543 78.6451 14.9543Z" fill="#121416"/>
<path d="M98.979 11.7208C96.2202 11.3995 93.8543 10.8541 93.8543 8.90199C93.8543 7.23642 95.3981 5.92342 98.6156 5.92342C101.115 5.92342 103.285 7.13916 104.069 8.4209L107.52 6.69281C105.779 3.23315 102.067 2.23972 98.4875 2.23972C94.2489 2.27445 89.5811 4.16233 89.5811 8.77347C89.5811 13.8014 93.9201 15.0206 98.6156 15.5643C101.67 15.8838 103.939 16.7487 103.939 18.8624C103.939 21.2974 101.378 22.2265 98.6502 22.2265C95.8568 22.2265 93.1966 21.1376 92.179 18.6731L88.5652 20.4984C90.2752 24.5972 93.8872 26.0075 98.5844 26.0075C103.711 26.0075 108.244 23.8608 108.244 18.8624C108.242 13.5131 103.773 12.2956 98.979 11.7208Z" fill="#121416"/>
<path d="M125.547 15.885C125.547 19.7267 123.591 22.0661 120.152 22.0661C116.709 22.0661 114.439 19.9195 114.439 15.885V3.04324H110.304V15.885C110.304 22.641 114.818 25.9079 120.119 25.9079C125.675 25.9079 129.683 22.5142 129.683 15.885V3.04324H125.547V15.885V15.885Z" fill="#121416"/>
<path d="M136.268 3.00711H131.948V25.4271H148.051V21.5194H136.268V3.00711Z" fill="#121416"/>
<path d="M167.209 6.49801L167.075 6.63178C166.766 6.91727 166.361 7.077 165.941 7.07962C165.735 7.09632 165.528 7.06858 165.334 6.99828C165.14 6.92797 164.964 6.81676 164.817 6.67219C164.67 6.52762 164.555 6.35309 164.482 6.16045C164.408 5.96781 164.377 5.76159 164.39 5.5558C164.378 5.13177 164.534 4.72017 164.824 4.41002C164.972 4.26935 165.148 4.16024 165.34 4.08926C165.532 4.01829 165.736 3.98693 165.941 3.99708C166.345 3.98924 166.736 4.14189 167.028 4.42166L167.159 4.54961L168.064 3.67719L167.927 3.54342C167.668 3.2806 167.358 3.07218 167.017 2.93037C166.676 2.78856 166.31 2.7162 165.941 2.71753C165.561 2.70343 165.183 2.76567 164.828 2.90055C164.473 3.03543 164.149 3.2402 163.875 3.50271C163.347 4.05785 163.06 4.79875 163.075 5.56452C163.075 6.85279 163.835 8.35626 165.938 8.35626C166.314 8.36335 166.688 8.29581 167.038 8.15754C167.388 8.01928 167.707 7.81303 167.977 7.55073L168.111 7.41986L167.209 6.49801Z" fill="#121416"/>
<path d="M165.849 0.389405C164.832 0.38883 163.836 0.690052 162.99 1.25497C162.143 1.81989 161.483 2.62313 161.093 3.56309C160.703 4.50304 160.601 5.53749 160.799 6.53559C160.997 7.53369 161.487 8.4506 162.207 9.17034C162.926 9.89008 163.843 10.3803 164.842 10.5791C165.84 10.7778 166.875 10.6761 167.815 10.2868C168.755 9.89753 169.559 9.23816 170.125 8.39211C170.69 7.54607 170.992 6.55134 170.992 5.53376C170.991 4.17037 170.449 2.86322 169.484 1.89888C168.52 0.934541 167.213 0.391714 165.849 0.389405V0.389405ZM169.648 5.53376C169.648 6.28562 169.425 7.02059 169.007 7.64569C168.59 8.2708 167.996 8.75796 167.301 9.04555C166.606 9.33314 165.841 9.40824 165.104 9.26135C164.366 9.11446 163.689 8.75217 163.157 8.22033C162.626 7.68848 162.264 7.01096 162.117 6.27348C161.971 5.536 162.047 4.77169 162.335 4.07723C162.623 3.38277 163.111 2.78936 163.736 2.37207C164.362 1.95478 165.097 1.73235 165.849 1.73293C166.857 1.73524 167.822 2.13651 168.534 2.84889C169.246 3.56127 169.647 4.52669 169.648 5.53376" fill="#121416"/>
<path d="M150.036 0.495392V3.95505H153.586V26.2448H150.036V29.7687H157.544V0.495392H150.036Z" fill="#121416"/>
<path d="M9.7561 29.7676H17.2623V26.2437H13.7108V3.88788H17.2623V0.429962H9.7561V29.7676Z" fill="#121416"/>
</g>
<defs>
<clipPath id="clip0_956_67">
<rect width="170.563" height="29.3155" fill="white" transform="translate(0.429199 0.385315)"/>
</clipPath>
</defs>
</svg>
