<svg width="200" height="55" viewBox="0 0 200 55" fill="none" xmlns="http://www.w3.org/2000/svg">
<path d="M126.036 28.3103C128.51 28.3154 130.933 28.3001 133.478 28.323C132.633 30.9744 131.826 33.5015 131.004 36.0767C130.725 36.059 130.492 36.0844 130.281 36.0235C129.061 35.6708 127.848 35.719 126.62 36.0082C125.778 36.2062 124.917 36.3584 124.055 36.4548C122.02 36.6832 120.14 36.1681 118.427 35.0796C117.019 34.184 116.329 32.8037 116.035 31.2027C115.596 28.8279 116.377 26.7702 117.773 24.918C119.561 22.5483 122.002 21.1832 124.877 20.5667C126.589 20.1988 128.3 20.214 129.961 20.8077C132.011 21.5384 133.468 22.873 134.029 25.05C134.14 25.4788 134.14 25.7426 134.039 26.1181C133.618 26.2551 129.325 26.2983 128.505 26.1714C128.48 26.146 128.444 26.1207 128.431 26.0902C127.949 25.0119 126.775 24.578 125.547 24.7861C124.029 25.0398 122.784 25.7477 121.888 27.0112C121.353 27.7648 121.16 28.63 121.249 29.5409C121.345 30.5431 121.875 31.2839 122.766 31.7254C123.796 32.2354 124.882 32.3267 125.968 31.903C126.516 31.6899 127.008 31.388 127.148 30.6928C126.518 30.4822 125.843 30.7562 125.158 30.4822C125.392 29.7362 125.719 29.0689 126.036 28.3103Z" fill="#FB0000"/>
<path d="M180.286 35.962C179.784 37.5376 179.281 39.1107 178.769 40.7244C176.896 40.7396 175.093 40.7472 173.179 40.7472C173.268 40.4275 173.316 40.2118 173.385 40.0012C174.506 36.51 175.628 33.0213 176.749 29.5326C177.155 28.2666 177.556 26.9954 177.97 25.7293C178.208 24.9986 178.368 24.892 179.111 25.0138C180.395 25.2295 181.646 25.0062 182.907 24.8058C184.457 24.5597 186.025 24.448 187.576 24.7423C189.151 25.0392 190.402 25.8562 191.133 27.343C191.668 28.4315 191.732 29.5783 191.447 30.7327C190.884 33.034 189.555 34.7568 187.439 35.8503C186.51 36.3299 185.493 36.4694 184.47 36.5303C183.11 36.614 181.768 36.51 180.494 35.9671C180.461 35.9493 180.418 35.962 180.286 35.962ZM181.352 32.7067C181.486 32.7676 181.573 32.8361 181.659 32.8412C182.466 32.8843 183.278 32.9782 184.079 32.9351C184.929 32.8894 185.716 32.5773 186.211 31.8263C186.718 31.0499 186.982 30.1872 186.893 29.2485C186.84 28.6877 186.604 28.2107 186.114 27.8936C185.178 27.2847 183.701 27.2161 182.849 28.4873C182.699 28.708 182.567 28.9516 182.481 29.2028C182.126 30.2202 181.786 31.2453 181.446 32.2703C181.405 32.3921 181.39 32.5266 181.352 32.7067Z" fill="#FB0000"/>
<path d="M52.962 35.2838C52.1552 35.4614 47.7277 35.4132 47.2507 35.2077C48.3646 31.4526 49.5444 27.7102 50.7623 23.9094C51.46 23.8967 52.1679 23.8079 52.8682 23.988C53.7105 24.2062 54.525 24.1885 55.3749 23.95C56.8491 23.5339 58.3613 23.3309 59.8988 23.4349C60.6346 23.4857 61.3476 23.6481 62.0225 23.9627C63.9432 24.8532 64.6587 26.7308 64.1994 28.6413C63.8493 30.1028 63.3596 31.5287 62.9283 32.9698C62.7583 33.5433 62.5857 34.1167 62.4005 34.685C62.332 34.8981 62.2255 35.1011 62.1519 35.2736C61.4262 35.4512 56.877 35.4183 56.4025 35.2254C56.4533 35.0377 56.4989 34.8372 56.5598 34.6393C57.1104 32.8506 57.6635 31.0644 58.2166 29.2756C58.3207 28.9407 58.4323 28.6033 58.105 28.1745C57.9832 28.1339 57.7549 27.9943 57.524 27.9918C56.9861 27.9867 56.4456 28.0501 55.9052 28.0806C55.3902 28.1085 55.1035 28.3977 54.9664 28.8747C54.8599 29.2452 54.7406 29.6131 54.629 29.981C54.1418 31.5668 53.6572 33.1525 53.1675 34.7383C53.1092 34.921 53.0331 35.096 52.962 35.2838Z" fill="#FB0000"/>
<path d="M161.668 24.9881H167.275C167.222 25.2545 167.199 25.4752 167.136 25.6833C166.661 27.2335 166.177 28.7813 165.697 30.329C165.601 30.6436 165.489 30.9531 165.426 31.2753C165.314 31.8234 165.578 32.2243 166.136 32.2344C166.77 32.2471 167.407 32.1735 168.039 32.0949C168.432 32.0441 168.592 31.7143 168.699 31.3641C169.039 30.2579 169.381 29.1517 169.721 28.0455C169.97 27.2335 170.213 26.4191 170.465 25.6097C170.528 25.4093 170.614 25.2164 170.703 24.9906H176.138C176.366 25.219 176.209 25.4423 176.145 25.6503C175.745 26.9824 175.341 28.3093 174.928 29.6363C174.314 31.6077 173.692 33.5791 173.073 35.548C173.009 35.7485 172.933 35.9464 172.844 36.195C172.307 36.3371 171.733 36.3701 171.203 36.2306C170.023 35.9261 168.899 35.9946 167.732 36.3371C166.907 36.5781 166.024 36.6467 165.159 36.7278C164.071 36.8293 162.995 36.705 161.975 36.2813C159.991 35.4567 159.179 33.7568 159.6 31.6712C159.849 30.4457 160.285 29.2582 160.643 28.0581C160.884 27.2437 161.133 26.4318 161.389 25.6224C161.46 25.4093 161.572 25.2088 161.668 24.9881Z" fill="#FB0000"/>
<path d="M12.3138 19.5112C12.6182 19.4858 12.8821 19.4453 13.1485 19.4453C14.615 19.4326 16.0841 19.4224 17.5506 19.4326C17.8551 19.4351 18.2281 19.3463 18.4412 19.7751C18.3651 20.0187 18.2839 20.2952 18.1925 20.5642C17.2994 23.1927 16.4038 25.8213 15.5081 28.4499C15.465 28.5767 15.4295 28.7087 15.3864 28.8355C15.2037 29.3557 15.361 29.7743 15.8025 30.1701H16.5205C18.2204 30.1701 19.9204 30.1676 21.6203 30.1777C21.8969 30.1803 22.176 30.2462 22.4196 30.2792C22.6479 31.1546 21.3463 34.7955 20.6181 35.4196C20.5268 35.4298 20.4126 35.4501 20.2984 35.4501C17.4796 35.4526 14.6582 35.4526 11.8393 35.4501C11.1111 35.4501 10.4185 35.2902 9.80446 34.8843C8.546 34.0546 8.19586 32.8038 8.31511 31.4032C8.37093 30.7613 8.57137 30.1194 8.78196 29.5028C9.83744 26.4201 10.9158 23.345 11.9916 20.2698C12.0778 20.0237 12.1971 19.7852 12.3138 19.5112Z" fill="#FB0000"/>
<path d="M37.5707 35.6046C36.5558 35.6299 35.3735 35.4016 34.2901 34.7749C32.1411 33.5291 31.3824 31.304 32.3212 29.0052C32.9327 27.5083 33.9907 26.3817 35.2923 25.4607C36.8527 24.3596 38.5805 23.6618 40.4758 23.4614C41.9652 23.3041 43.452 23.3878 44.8399 24.0526C45.8573 24.5397 46.6997 25.2248 47.2046 26.2625C47.8566 27.5996 47.6968 28.9291 47.1006 30.2256C46.4079 31.7277 45.2484 32.8238 43.8986 33.7296C42.2418 34.8383 40.0014 35.6426 37.5707 35.6046ZM39.1311 31.5755C39.5447 31.4841 39.9709 31.4359 40.3668 31.2938C41.0848 31.035 41.7318 30.6468 42.1301 29.9592C42.6909 28.9926 42.3407 28.0842 41.3106 27.663C39.9303 27.0998 38.1086 28.0487 37.5961 28.8733C37.3272 29.3097 37.1521 29.7715 37.3043 30.2992C37.5276 31.0756 38.1771 31.5196 39.1311 31.5755Z" fill="#FB0000"/>
<path d="M149.137 36.5511C147.952 36.5739 146.823 36.3633 145.781 35.7924C143.441 34.5086 142.683 32.116 143.84 29.7107C144.652 28.0234 145.981 26.8436 147.574 25.9429C149.343 24.9432 151.243 24.4256 153.286 24.517C154.397 24.5677 155.46 24.8189 156.439 25.3771C158.51 26.5569 159.256 28.5816 158.434 30.8169C158.053 31.8546 157.409 32.7224 156.612 33.4683C154.514 35.4423 152.017 36.4673 149.137 36.5511ZM150.462 32.5067C151.591 32.4357 152.583 32.0602 153.26 31.1112C153.996 30.0811 153.567 28.9647 152.337 28.6476C151.139 28.338 150.124 28.7592 149.236 29.5153C148.602 30.0558 148.399 30.8524 148.67 31.4994C148.993 32.2657 149.64 32.4915 150.406 32.5042C150.424 32.5067 150.444 32.5067 150.462 32.5067Z" fill="#FB0000"/>
<path d="M132.572 36.3022C133.772 32.4482 134.932 28.7337 136.094 25.0039C136.698 25.0039 137.279 24.9481 137.842 25.0166C138.717 25.1206 139.572 25.009 140.435 24.9151C141.257 24.8263 142.087 24.7426 142.911 24.7502C143.398 24.7553 143.903 24.8974 144.365 25.0674C144.938 25.278 145.169 25.5875 145.362 26.1964C144.484 27.1098 143.581 28.0537 142.675 28.995C142.498 28.9848 142.345 28.9798 142.193 28.9696C141.196 28.9037 140.318 29.5024 140.037 30.4463C139.527 32.164 139.019 33.8842 138.509 35.6045C138.296 36.325 138.182 36.4113 137.459 36.4113C136.068 36.4113 134.678 36.4138 133.288 36.4037C133.077 36.4037 132.861 36.3453 132.572 36.3022Z" fill="#FB0000"/>
<path d="M26.6326 23.9334H32.3667C32.3388 24.1415 32.3388 24.3089 32.2931 24.4637C31.2275 27.9295 30.1542 31.3954 29.081 34.8587C29.0353 35.0033 28.9668 35.1403 28.9186 35.2647C28.3858 35.4347 23.6716 35.4321 23.1287 35.2444C24.2856 31.4639 25.4502 27.686 26.6326 23.9334Z" fill="#FB0000"/>
<path d="M31.0683 18.0991C31.7229 18.0737 32.3293 18.2412 32.8875 18.5685C33.7197 19.0556 33.943 19.7508 33.5574 20.6287C33.1489 21.5573 32.3598 22.0724 31.4692 22.4327C30.5787 22.793 29.6373 22.8868 28.691 22.6813C28.3941 22.6179 28.0922 22.5088 27.8359 22.349C26.8464 21.74 26.7068 20.4587 27.5188 19.624C28.5742 18.5431 29.5866 18.1067 31.0683 18.0991Z" fill="#FB0000"/>
<path d="M87.0328 48.0672C89.7982 46.8348 91.0189 44.4563 91.956 41.8561C92.037 41.6309 92.0057 41.4917 91.7627 41.4056C91.5823 41.3416 91.4147 41.2408 91.2012 41.1365C90.9066 41.7023 90.6378 42.2498 90.3414 42.7808C89.4245 44.416 88.3327 45.9101 86.7548 46.9832C85.825 47.6149 84.8161 47.9829 83.6617 47.7266C82.8737 47.5508 82.325 47.0784 81.8942 46.3404C85.6962 45.7984 88.2112 43.4766 90.3634 40.5688C90.1002 40.3271 89.8553 40.1056 89.5331 39.8126C89.279 40.0982 89.047 40.3747 88.7985 40.6348C87.344 42.1454 85.7532 43.4821 83.8035 44.3299C82.2735 44.9964 80.7067 45.2693 79.0552 44.7877C77.8713 44.4434 77.1643 43.6963 76.9507 42.4897C76.9286 42.3706 76.9305 42.2461 76.9194 42.1198C81.4155 42.9804 85.2893 41.5338 88.9605 39.1204C88.7469 38.7597 88.5647 38.4521 88.364 38.1133C87.7012 38.388 87.0623 38.6682 86.4142 38.919C84.7811 39.5489 83.137 40.1715 81.3879 40.3912C79.3903 40.6421 77.3889 40.7593 75.4649 39.9499C74.5039 39.5453 73.668 38.9758 73.0899 38.0877C72.4712 37.1355 72.3939 36.1193 72.7511 35.0371C77.5307 37.8332 82.6104 38.0969 87.9037 36.9652C87.8503 36.6778 87.8227 36.3994 87.7398 36.1376C87.7104 36.046 87.5483 35.9453 87.4434 35.9398C87.1801 35.9252 86.9132 35.971 86.6462 35.9783C83.2014 36.0845 79.8119 35.7823 76.5586 34.55C74.9531 33.9421 73.517 33.0595 72.3203 31.8235C70.9965 30.4557 70.6338 28.6612 71.3739 27.1304C71.5452 26.7788 71.8158 26.4749 72.0533 26.127C72.1619 26.2222 72.2116 26.2515 72.2411 26.2954C73.5409 28.1686 75.2882 29.5456 77.1956 30.7523C80.309 32.7226 83.7004 33.9824 87.2887 34.7661C87.3698 34.7844 87.4544 34.7917 87.5391 34.7972C87.5631 34.799 87.5889 34.7752 87.6441 34.7496C87.6717 34.4933 87.7251 34.2186 87.714 33.9476C87.7104 33.8579 87.5612 33.7315 87.4526 33.6912C85.0886 32.8324 82.8148 31.7722 80.6754 30.4648C77.5473 28.5532 74.8113 26.2002 72.9573 22.9811C72.0128 21.3405 71.5783 19.5973 72.2098 17.7259C72.6498 16.424 73.482 15.5542 74.9218 15.3766C76.5567 23.1917 81.3787 28.6044 87.9884 32.7629C88.1228 32.4589 88.2701 32.2282 88.3179 31.9773C88.3419 31.8546 88.2093 31.6605 88.0952 31.5617C87.0365 30.6498 85.9189 29.8002 84.9063 28.8388C80.9442 25.0814 78.3206 20.5421 77.1312 15.2265C76.6212 12.9522 76.6488 10.6524 77.4239 8.4166C77.8308 7.24287 78.4991 6.26689 79.7511 5.83475C80.6809 5.51431 81.5959 5.63883 82.5055 5.92448C79.9665 16.6803 84.4092 26.7807 89.279 30.5637C89.5552 30.2671 89.8093 29.9283 90.1278 29.6647C92.1862 27.9581 94.5263 27.4747 97.0542 28.3316C99.6538 29.2124 101.237 31.0838 101.766 33.7572C102.561 37.7947 99.4992 41.7279 95.3806 42.0337C95.1651 42.0502 94.9608 42.0593 95.0492 42.356C95.1265 42.6123 94.9037 43.0335 95.4929 43.0024C98.7885 42.8339 101.705 40.5066 102.646 37.2619C104.049 32.4259 100.933 27.5973 95.9255 26.907C93.4768 26.5701 91.2914 27.2421 89.3969 28.8297C89.3122 28.9011 89.2256 28.9743 89.0912 29.0879C86.208 25.7992 84.4994 22.0015 83.9158 17.649C84.3761 17.5318 84.8437 17.4128 85.3574 17.2809C85.1291 16.9861 84.9247 16.7481 84.7498 16.4899C84.3429 15.893 84.157 15.2356 84.2453 14.5087C84.2803 14.2139 84.3963 14.0912 84.7314 14.093C85.2322 14.0967 85.733 14.0179 86.2338 13.9648C86.8708 13.8989 87.506 13.8238 88.097 13.7579C88.0712 13.2782 87.9976 12.7856 88.0289 12.2985C88.0712 11.6485 88.1541 11.6686 88.8114 11.6869C89.5478 11.7071 90.288 11.6247 91.0244 11.5643C91.8529 11.4965 92.6833 11.2163 93.3792 11.6192C93.5947 11.1541 93.764 10.7146 93.9979 10.3154C94.1433 10.0664 94.3716 10.0609 94.6828 10.1891C95.5591 10.5535 96.4613 10.8629 97.3653 11.1541C97.9766 11.3518 98.5473 11.5899 98.9874 12.1502C99.0739 12.0001 99.1402 11.8865 99.2028 11.773C99.42 11.3738 99.7588 11.1339 100.21 11.1248C100.372 11.1211 100.63 11.2255 100.687 11.35C101.186 12.4487 102.13 13.0676 103.119 13.6389C103.688 13.9685 104.281 14.256 104.85 14.5856C105.441 14.9262 105.531 15.1276 105.314 15.7465C105.212 16.034 105.323 16.1383 105.533 16.2738C106.433 16.8543 107.433 16.9843 108.473 16.955C109.139 16.9349 109.41 17.3597 109.132 17.9548C109.077 18.072 109.029 18.2313 109.064 18.343C109.349 19.2347 108.628 20.6996 107.751 21.2379C107.718 21.1446 107.681 21.0603 107.657 20.9724C107.444 20.1668 106.893 19.8207 106.063 19.9708C105.006 20.1613 104.253 20.9614 104.074 22.0802C104.054 22.2048 104.034 22.3293 104.027 22.4538C103.993 23.0269 104.025 23.5671 104.61 23.9077C105.186 24.2428 105.765 24.4021 106.398 24.0835C106.556 24.0029 106.722 23.937 106.884 23.8656C106.93 23.8875 106.976 23.9113 107.022 23.9333C106.862 24.5138 106.753 25.1162 106.525 25.6692C106.319 26.1691 105.463 26.4419 104.87 26.2918C104.625 26.2295 104.382 26.1654 104.139 26.1013C103.853 26.0244 103.719 26.1709 103.66 26.4254C103.347 27.7896 104.144 29.4413 105.052 29.9118C105.288 30.0327 105.503 30.1957 105.713 30.3568C106.159 30.6974 106.173 31.0453 105.774 31.439C105.715 31.4976 105.649 31.5507 105.579 31.5983C104.945 32.0268 104.809 32.5322 105.192 33.2005C105.348 33.4752 105.545 33.7462 105.781 33.9549C106.096 34.2369 106.162 34.5757 106.078 34.9364C105.993 35.2971 105.661 35.3172 105.343 35.3722C105.209 35.396 105.065 35.6011 105.004 35.7549C104.645 36.6594 104.387 37.6134 103.953 38.4796C102.659 41.0541 100.449 42.4677 97.6986 43.1159C96.9934 43.2825 96.2661 43.3686 95.5463 43.4638C95.2701 43.5004 95.178 43.559 95.2056 43.874C95.2756 44.6632 95.3621 45.4634 95.294 46.2471C95.1651 47.7284 93.5376 48.6385 92.2451 48.0489C92.5728 47.505 93.0202 46.996 93.2006 46.4045C93.4768 45.4945 93.5836 44.5313 93.7327 43.5865C93.7935 43.2038 93.7567 42.8064 93.7972 42.4182C93.8303 42.1015 93.7456 41.9422 93.4013 41.9422C93.2246 41.9422 93.0478 41.8872 92.8564 41.8524C92.6907 42.7442 92.5507 43.6066 92.3648 44.4599C92.1328 45.5165 91.7609 46.5291 91.1054 47.4007C90.3837 48.3583 89.4687 48.9571 88.1835 48.7355C87.7343 48.655 87.3348 48.492 87.0328 48.0672ZM98.4663 14.7009C98.4645 14.0582 97.5549 13.4704 96.9363 13.5986C96.2054 13.7506 95.677 14.4757 95.8335 15.1312C95.9642 15.6714 96.43 16.0559 96.8571 15.9369C96.7264 15.4627 96.5055 14.939 97.0339 14.5727C97.5218 14.234 97.9876 14.657 98.4663 14.7009ZM103.222 16.3526C103.579 16.792 103.876 17.1583 104.218 17.5812C104.503 17.0356 104.754 16.5613 105.019 16.0559C104.402 16.1585 103.876 16.2445 103.222 16.3526Z" fill="#FB0000"/>
</svg>
