<svg width="119" height="34" viewBox="0 0 119 34" fill="none" xmlns="http://www.w3.org/2000/svg">
<path d="M55.6931 1.30829V33.1757H62.5209V16.6655L82.606 33.1757V1.30829H75.7762V17.241L55.6931 1.30829Z" fill="#292929"/>
<path d="M103.308 0.91571L88.0374 33.1727H95.8043L97.6201 28.9665H103.31H108.999L110.815 33.1727H118.582L103.308 0.91571ZM103.308 23.0716H100.496L103.308 16.6467L106.119 23.0716H103.308Z" fill="#292929"/>
<path d="M12.942 0.916687C8.38687 0.916687 0.840576 0.916687 0.840576 0.916687V33.1736H7.74256V22.4932H12.573C12.573 22.4932 23.1104 22.3528 23.1104 11.8681C23.1104 5.29684 17.4971 0.916687 12.942 0.916687ZM13.3715 15.8943H7.79332V11.7356V7.5769H13.3715C13.3715 7.5769 17.255 7.62238 17.255 11.7356C17.255 15.8488 13.3715 15.8943 13.3715 15.8943Z" fill="#292929"/>
<path d="M35.3415 9.26349L31.4092 13.2481V29.1828L35.3415 33.1655H43.208L47.1422 29.1828V13.2481L43.208 9.26349L39.2757 13.2481L35.3415 9.26349Z" fill="#FFD700"/>
<path d="M35.3415 1.29865L31.4092 5.28133L39.2757 13.2487L47.1422 5.28133L43.208 1.29865L39.2757 5.28133L35.3415 1.29865Z" fill="#76ABAC"/>
<path d="M39.2775 29.1844L43.2098 33.1671H35.3433L39.2775 29.1844Z" fill="#F7B313"/>
<path d="M43.208 1.29279L47.1422 5.27547L43.208 9.25815V1.29279Z" fill="#5F98A4"/>
<path d="M39.2769 5.27325L43.2091 9.25593L39.2769 13.2406V5.27325Z" fill="#5F98A4"/>
<path d="M43.208 9.25665L47.1422 13.2413L43.208 17.224V9.25665Z" fill="#F7B313"/>
<path d="M43.208 17.2293L47.1422 21.214L43.208 25.1966V17.2293Z" fill="#F7B313"/>
<path d="M43.208 25.1942L47.1422 29.1788L43.208 33.1615V25.1942Z" fill="#F7B313"/>
<path d="M39.2769 13.244L43.2091 17.2266L39.2769 21.2113V13.244Z" fill="#F7B313"/>
<path d="M39.2769 21.2117L43.2091 25.1944L39.2769 29.1791V21.2117Z" fill="#F7B313"/>
</svg>
