<svg width="159" height="46" viewBox="0 0 159 46" fill="none" xmlns="http://www.w3.org/2000/svg">
<g clip-path="url(#clip0_956_17)">
<path d="M159.003 26.8712C137.894 32.0631 100.379 30.6351 80.0635 26.1097C54.0206 20.3096 20.7254 21.6356 0.420898 26.9064C14.1293 25.8495 38.7818 24.9397 66.739 34.3052C90.0353 42.353 129.43 48.6672 159.003 43.101V26.8712Z" fill="#169BFF"/>
<path d="M77.6912 19.2516H73.8809V5.55771H77.6912V19.2516Z" fill="#169BFF"/>
<path d="M6.57696 11.6129H4.65224L4.65165 7.99542H6.77874C8.08976 7.99542 8.55152 8.83995 8.55152 9.73433C8.55152 10.6686 7.94172 11.6129 6.57696 11.6129ZM6.57704 5.5882H0.92041V19.2854H4.65242V14.068H7.53717C10.5878 14.068 12.135 12.621 12.135 9.76627C12.135 6.87694 10.6322 5.5882 6.57704 5.5882Z" fill="#169BFF"/>
<path d="M20.9137 17.0108C18.9167 17.0108 17.7258 15.3138 17.7258 12.4697C17.7258 8.02695 20.1448 7.67852 20.8865 7.67852C21.9839 7.67852 23.8244 8.29894 23.8244 12.4457C23.8244 15.3025 22.7363 17.0108 20.9137 17.0108ZM21.0159 5.32648C16.7617 5.32648 14.1191 8.04359 14.1191 12.4185C14.1191 16.8918 16.5587 19.4593 20.8109 19.4593C25.0186 19.4593 27.5305 16.7781 27.5305 12.2935C27.5305 7.80088 25.217 5.32648 21.0159 5.32648Z" fill="#169BFF"/>
<path d="M29.9219 12.6236C29.9219 8.04325 32.4789 5.30685 36.7636 5.30685C40.1293 5.30685 42.2438 6.98127 42.3745 9.68174H38.7241C38.4634 8.50141 37.6984 7.85504 36.463 7.85504C35.0266 7.85504 33.5776 9.22889 33.5776 12.2938C33.5776 16.398 35.3544 17.0112 36.4126 17.0112C37.8364 17.0112 38.6379 16.3089 38.8761 14.8819H42.5755C42.4442 17.7539 40.1877 19.5341 36.5911 19.5341C33.5484 19.5341 29.9219 18.3351 29.9219 12.6236Z" fill="#169BFF"/>
<path d="M48.8529 14.0496L50.9674 8.10338L53.0374 14.0496H48.8529ZM53.139 5.54523H49.054C48.9292 5.85244 43.8159 18.5775 43.5479 19.2418H46.9839C47.0908 18.9405 47.9752 16.4562 47.9752 16.4562H53.829C53.829 16.4562 54.6928 18.9379 54.7996 19.2418H58.7346C58.4626 18.5748 53.2624 5.85044 53.139 5.54523Z" fill="#169BFF"/>
<path d="M66.1758 11.3619H63.924V7.99774L66.2521 8.00376C67.7343 8.00376 68.153 8.75252 68.153 9.55914C68.153 10.5493 67.8385 11.3619 66.1758 11.3619ZM71.3807 16.0394C71.3807 12.6147 69.0141 12.3128 69.0141 12.3128C69.0141 12.3128 71.7437 12.237 71.6866 8.86891C71.6449 6.58736 70.7597 5.50145 65.6981 5.55797H60.2424V19.2519H63.924V13.9061H66.1493C67.5539 13.9061 67.7482 15.2008 67.7482 16.5953C67.7482 17.5821 68.0999 18.8216 68.4887 19.2519H72.1769C71.7775 18.3788 71.3807 17.2842 71.3807 16.0394Z" fill="#169BFF"/>
<path d="M94.0327 15.4246C94.0327 14.094 92.3774 13.7037 90.7757 13.3266C88.5292 12.7993 86.4506 11.9474 86.4506 9.32343C86.4506 6.99934 88.6978 5.24643 91.6767 5.24643C93.8874 5.24643 95.4691 5.70928 96.3761 6.62494C97.2572 7.51536 97.3149 8.64315 97.3149 9.32941V9.34257H93.7255C93.6996 8.67361 93.492 7.51721 91.8545 7.51721C90.8414 7.51721 90.107 8.11701 90.107 8.94159C90.107 10.1718 91.2369 10.4671 93.7109 11.1154C95.8606 11.6746 97.7906 12.4008 97.7906 15.098C97.7906 17.7698 95.5905 19.4988 92.1836 19.4988C88.2174 19.4988 86.2489 17.9654 86.1421 14.8459H89.6976C89.7905 16.2717 90.6417 17.1508 91.9813 17.1508C93.1901 17.1508 94.0327 16.44 94.0327 15.4246Z" fill="#169BFF"/>
<path d="M106.999 5.45151L104.5 15.6415L102.016 5.47001H98.2227L102.289 19.1667H106.269L109.198 8.49944H109.199L112.13 19.1667H116.107L120.174 5.47001H116.382L113.897 15.6415L111.4 5.45151H106.999Z" fill="#169BFF"/>
<path d="M131.356 5.48761V7.8616H125.52V10.8054H130.902V13.2566H125.52V16.5336H131.532V19.1822H121.859V5.48761H131.356Z" fill="#169BFF"/>
<path d="M138.644 14.1171L140.757 8.17417L142.827 14.1171H138.644ZM142.952 5.51691H138.867C138.744 5.82478 133.629 18.5478 133.362 19.2135H136.798C136.905 18.9122 137.788 16.4279 137.788 16.4279H143.644C143.644 16.4279 144.507 18.9082 144.614 19.2135H148.549C148.276 18.5472 143.077 5.82279 142.952 5.51691Z" fill="#169BFF"/>
<path d="M159 5.48761V8.08767H154.753V19.1822H151.145V8.08767H146.822V5.48761H159Z" fill="#169BFF"/>
</g>
<defs>
<clipPath id="clip0_956_17">
<rect width="158.582" height="44.3491" fill="white" transform="translate(0.419922 0.86853)"/>
</clipPath>
</defs>
</svg>
